# xmcd
#
# Track frame offsets:
#	150
#	11672
#	27274
#	28374
#	45715
#	54843
#	65649
#	66218
#	78263
#	91313
#	111185
#	123820
#	131070
#	138037
#	151372
#	164662
#	180437
#	193580
#	209588
#	223110
#	236339
#	249452
#	262769
#	274064
#	292945
#	304226
#
# Disc length: 4323 seconds
#
# Revision: 1
# Processed by: cddbd v1.5.1PL0 Copyright (c) Steve Scherf et al.
# Submitted via: EasyCDDAExtractor 7.0.5.4
#
DISCID=7210e11a
DTITLE=MARGE AND DEBBIE RHOADS - THE COUNTRY RHOADS
DYEAR=1985
DGENRE=Country
TTITLE0=DOUBLE TALK
TTITLE1=BIRMINGHAM JAIL
TTITLE2=X
TTITLE3=COWBOY'S SWEETHEART
TTITLE4=SHANGHAI ROOSTER
TTITLE5=THERE'S A SILVER MOON ON THE GOLDEN GATE
TTITLE6=X
TTITLE7=ARIZONA YODELERS
TTITLE8=MOCKINGBIRD HILL
TTITLE9=X
TTITLE10=HE TAUGHT ME TO YODEL
TTITLE11=I LOVE LITTLE WILLIE
TTITLE12=DOWN IN JUNGLE TOWN
TTITLE13=DOWN THE YODELING TRAIL AT TWILIGHT
TTITLE14=IN TEH BACK OF PALLY'S TRUCK
TTITLE15=MY EBONY EYES
TTITLE16=GOODIES IN HIS OVERALL BIB
TTITLE17=BARBARA ALLEN
TTITLE18=SO YOUNG SO SWEET, AND INNOCENT
TTITLE19=PUT MY LITTLE SHOES AWAY
TTITLE20=KENTUCKY
TTITLE21=SLEEPING WITH MEMORIES
TTITLE22=JSUT BEING ME
TTITLE23=LIGHTNING EXPRESS
TTITLE24=DON'T GO TO ANNIE PEARL
TTITLE25=TO DADDY
EXTD=
EXTT0=
EXTT1=
EXTT2=
EXTT3=
EXTT4=
EXTT5=
EXTT6=
EXTT7=
EXTT8=
EXTT9=
EXTT10=
EXTT11=
EXTT12=
EXTT13=
EXTT14=
EXTT15=
EXTT16=
EXTT17=
EXTT18=
EXTT19=
EXTT20=
EXTT21=
EXTT22=
EXTT23=
EXTT24=
EXTT25=
PLAYORDER=
